<svg width="313" height="97" viewBox="18 18 313 97" fill="none" xmlns="http://www.w3.org/2000/svg">
<path d="M133 87.2374V66.6185C133 56.6544 141.077 48.577 151.042 48.577C161.006 48.577 169.083 56.6545 169.083 66.6185V87.2374" stroke="#2D2D2D" stroke-width="8"/>
<path d="M325.083 46L325.083 66.6189C325.083 76.5829 317.006 84.6604 307.042 84.6604C297.077 84.6604 289 76.5829 289 66.6189L289 46" stroke="#2D2D2D" stroke-width="8"/>
<path d="M204.151 46.0206C215.293 46.303 224.237 55.4236 224.237 66.6329L224.231 67.1651C224.216 67.784 224.171 68.3959 224.102 69.0001H216.015C216.16 68.2333 216.237 67.442 216.237 66.6329C216.237 59.6639 210.588 54.0139 203.619 54.0138C196.65 54.0138 191 59.6638 191 66.6329C191 73.602 196.65 79.251 203.619 79.2511C208.265 79.251 212.322 76.7387 214.512 73.0001H223.234C220.551 81.2709 212.784 87.2509 203.619 87.2511L203.087 87.2452C192.122 86.9675 183.285 78.1297 183.007 67.1651L183 66.6329C183 55.2456 192.232 46.0138 203.619 46.0138L204.151 46.0206Z" fill="#2D2D2D"/>
<path d="M199 62.9999L222 62.9999L224 68.9999H199V62.9999Z" fill="#2D2D2D"/>
<path d="M275.231 46.5338C274.949 57.6751 265.828 66.6196 254.619 66.6197L254.087 66.6139C243.122 66.3362 234.285 57.4984 234.007 46.5338L234 46.0064H242C242.003 52.9733 247.652 58.6197 254.619 58.6197C261.587 58.6196 267.235 52.9732 267.237 46.0064H275.237L275.231 46.5338Z" fill="#2D2D2D"/>
<path d="M234.009 86.7044C234.292 75.5632 243.412 66.6186 254.622 66.6184L255.154 66.6243C266.118 66.902 274.956 75.7399 275.234 86.7044L275.241 87.2317L267.241 87.2317C267.238 80.2651 261.589 74.6185 254.622 74.6184C247.654 74.6186 242.006 80.2651 242.003 87.2317L234.003 87.2317L234.009 86.7044Z" fill="#2D2D2D"/>
<path d="M44.5645 24C55.9219 24 65.1289 33.207 65.1289 44.5645V60.7227C65.1288 63.1562 63.1562 65.1287 60.7227 65.1289H45.9355V45.9355H43.1934V65.1289H28.4062C25.9728 65.1287 24.0001 63.1561 24 60.7227V44.5645C24 33.207 33.207 24 44.5645 24Z" fill="#2D2D2D"/>
<path d="M88.4355 109C77.0781 109 67.8711 99.793 67.8711 88.4355L67.8711 72.2773C67.8712 69.8438 69.8438 67.8713 72.2773 67.8711L87.0645 67.8711L87.0645 87.0645L89.8066 87.0645L89.8066 67.8711L104.594 67.8711C107.027 67.8713 109 69.8439 109 72.2773L109 88.4355C109 99.793 99.793 109 88.4355 109Z" fill="#2D2D2D"/>
<path d="M67.8711 44.5659C67.8711 33.2085 77.0781 24.0015 88.4355 24.0015C99.3319 24.0015 108.247 32.4761 108.953 43.1938L89.8066 43.1938L89.8066 45.9351L108.953 45.9351C108.248 56.6541 99.3329 65.1304 88.4355 65.1304C77.0781 65.1303 67.8711 55.9233 67.8711 44.5659Z" fill="#2D2D2D"/>
<path d="M24 88.4365C24 83.2511 25.9192 78.5139 29.0859 74.8965L39.7773 85.5869L41.7168 83.6484L31.0254 72.958C34.6429 69.791 39.3797 67.8711 44.5654 67.8711C49.5341 67.8711 54.0909 69.6337 57.6455 72.5674L46.5625 83.6504L48.501 85.5889L59.6396 74.4512C63.0451 78.1206 65.1288 83.0337 65.1289 88.4346C65.1289 93.6203 63.2093 98.3581 60.042 101.976L48.2031 90.1357L46.2637 92.0742L58.1025 103.914C54.4854 107.08 49.7492 109 44.5645 109C39.1634 109 34.2486 106.917 30.5791 103.512L42.0146 92.0771L40.0762 90.1377L28.6963 101.518C25.7624 97.9629 24 93.4055 24 88.4365Z" fill="#2D2D2D"/>
</svg>
