<svg width="128" height="128" viewBox="0 0 128 128" fill="none" xmlns="http://www.w3.org/2000/svg">
<g clip-path="url(#clip0_6771_88)">
<path d="M47.975 84.6375C44.96 86.165 41.2075 84.695 39.635 81.3725C39.1125 80.27 39 79.66 39 77.9525C39 76.185 39.1075 75.65 39.715 74.365C42.46 68.56 50.0725 69.5275 51.61 75.875C51.71 76.2875 51.7875 77.3375 51.78 78.2075C51.76 80.93 50.2475 83.485 47.975 84.6375Z" fill="#2EBC80"/>
<path d="M86.7501 92.9778C82.8676 93.8728 78.4751 92.5678 75.2176 89.5553C73.7751 88.2203 73.3176 87.5728 67.1301 78.1253C65.2401 75.2378 61.5951 69.6903 59.0326 65.7978C47.6151 48.4503 48.0426 49.0528 46.7001 48.3528C44.6276 47.2703 43.0426 48.4103 39.8526 53.2903C38.9226 54.7128 35.8651 59.3628 33.0576 63.6253C30.2526 67.8878 26.6451 73.3753 25.0401 75.8178C17.9476 86.6253 16.4076 88.9178 15.7976 89.5653C15.4426 89.9453 14.5626 90.4428 13.8426 90.6678C12.6251 91.0528 12.4576 91.0528 11.4476 90.6653C8.62513 89.5878 7.04513 86.5178 7.82263 83.6253C8.04013 82.8228 9.21763 80.7678 11.1176 77.8753C12.7451 75.4003 15.2226 71.6303 16.6251 69.5003C19.7676 64.7228 23.6626 58.7853 26.7951 54.0003C35.9701 39.9878 36.2501 39.6153 38.7501 38.0103C43.6551 34.8653 50.9151 35.8703 54.8426 40.2428C55.6801 41.1753 58.7626 45.7528 66.7951 58.0003C67.8301 59.5803 70.6826 63.9128 73.1301 67.6253C75.5776 71.3378 78.2801 75.4428 79.1351 76.7503C82.3851 81.7203 84.2051 82.4878 86.6776 79.9353C87.2426 79.3528 90.3976 74.7703 93.6876 69.7503C96.9776 64.7303 101.675 57.5878 104.125 53.8753C106.575 50.1628 109.615 45.5503 110.875 43.6253C113.373 39.8178 113.69 39.4603 115.063 38.8853C118.34 37.5153 121.73 40.1453 121.745 44.0703C121.75 45.5978 121.358 46.8103 120.388 48.2503C120.065 48.7328 118.035 51.8253 115.875 55.1253C97.6426 82.9978 93.8776 88.5853 92.4551 89.8853C90.9551 91.2528 88.5301 92.5678 86.7501 92.9778Z" fill="#606060"/>
<path d="M0 64V0H64H128V64V128H64H0V64ZM86.75 92.9775C88.53 92.5675 90.955 91.2525 92.455 89.885C93.8775 88.585 97.6425 82.9975 115.875 55.125C118.035 51.825 120.065 48.7325 120.387 48.25C121.357 46.81 121.75 45.5975 121.745 44.07C121.73 40.145 118.34 37.515 115.062 38.885C113.69 39.46 113.372 39.8175 110.875 43.625C109.615 45.55 106.575 50.1625 104.125 53.875C101.675 57.5875 96.9775 64.73 93.6875 69.75C90.3975 74.77 87.2425 79.3525 86.6775 79.935C84.205 82.4875 82.385 81.72 79.135 76.75C78.28 75.4425 75.5775 71.3375 73.13 67.625C70.6825 63.9125 67.83 59.58 66.795 58C58.7625 45.7525 55.68 41.175 54.8425 40.2425C50.915 35.87 43.655 34.865 38.75 38.01C36.25 39.615 35.97 39.9875 26.795 54C23.6625 58.785 19.7675 64.7225 16.625 69.5C15.2225 71.63 12.745 75.4 11.1175 77.875C9.2175 80.7675 8.04 82.8225 7.8225 83.625C7.045 86.5175 8.625 89.5875 11.4475 90.665C12.4575 91.0525 12.625 91.0525 13.8425 90.6675C14.5625 90.4425 15.4425 89.945 15.7975 89.565C16.4075 88.9175 17.9475 86.625 25.04 75.8175C26.645 73.375 30.2525 67.8875 33.0575 63.625C35.865 59.3625 38.9225 54.7125 39.8525 53.29C43.0425 48.41 44.6275 47.27 46.7 48.3525C48.0425 49.0525 47.615 48.45 59.0325 65.7975C61.595 69.69 65.24 75.2375 67.13 78.125C73.3175 87.5725 73.775 88.22 75.2175 89.555C78.475 92.5675 82.8675 93.8725 86.75 92.9775ZM47.975 84.6375C50.2475 83.485 51.76 80.93 51.78 78.2075C51.7875 77.3375 51.71 76.2875 51.61 75.875C50.0725 69.5275 42.46 68.56 39.715 74.365C39.1075 75.65 39 76.185 39 77.9525C39 79.66 39.1125 80.27 39.635 81.3725C41.2075 84.695 44.96 86.165 47.975 84.6375Z" fill="#FEFEFE"/>
</g>
<defs>
<clipPath id="clip0_6771_88">
<rect width="128" height="128" fill="white"/>
</clipPath>
</defs>
</svg>
