<svg width="128" height="128" viewBox="0 0 128 128" fill="none" xmlns="http://www.w3.org/2000/svg">
<g clip-path="url(#clip0_0_742)">
<path d="M70.2058 -1.29553L70.226 45.2758C70.2288 52.6332 62.5076 57.3503 56.0922 53.9101L10.0386 29.217C13.5509 23.3566 17.9677 18.1167 23.0883 13.6888L59.2078 47.5308C61.1218 49.3235 64.1387 47.3798 63.3502 44.8621L49.343 0.144749C54.0579 -0.994143 58.9754 -1.60046 64.033 -1.60046C66.1164 -1.60046 68.1744 -1.49551 70.2058 -1.29553Z" fill="#F8FF2C"/>
<path d="M57.7037 126.081L57.6836 79.7443C57.6808 72.3869 65.4024 67.6695 71.8174 71.1097L117.888 95.8119C114.352 101.657 109.914 106.88 104.774 111.287L68.7018 77.489C66.7881 75.6962 63.7709 77.64 64.5594 80.1576L78.5136 124.706C73.8644 125.813 69.0172 126.4 64.0346 126.4C61.8982 126.4 59.7858 126.291 57.7037 126.081Z" fill="#F8FF2C"/>
<path d="M78.7323 57.6985L112.183 21.0085C107.819 15.797 102.649 11.301 96.8646 7.72406L72.4385 54.5398C69.045 61.0436 73.6991 68.8717 80.9568 68.8681L126.85 68.8476C127.059 66.7274 127.168 64.5765 127.168 62.4C127.168 57.3389 126.586 52.4161 125.49 47.6937L81.3645 61.8979C78.8811 62.6974 76.9636 59.6388 78.7323 57.6985Z" fill="#F8FF2C"/>
<path d="M1.20034 56.172L46.9544 56.1515C54.2128 56.1487 58.8658 63.9763 55.4727 70.4798L31.1723 117.054C25.4103 113.486 20.2583 109.006 15.9072 103.816L49.1796 67.3214C50.948 65.3812 49.03 62.3225 46.5467 63.1217L2.61759 77.2629C1.49834 72.4932 0.902344 67.517 0.902344 62.3993C0.902344 60.2978 1.00518 58.2208 1.20034 56.172Z" fill="#F8FF2C"/>
</g>
<defs>
<clipPath id="clip0_0_742">
<rect width="128" height="128" fill="white"/>
</clipPath>
</defs>
</svg>
