<svg width="128" height="128" viewBox="0 0 128 128" fill="none" xmlns="http://www.w3.org/2000/svg">
<g clip-path="url(#clip0_268_6211)">
<g clip-path="url(#clip1_268_6211)">
<path d="M128 64C128 28.6564 99.3435 0 64 0C28.6564 0 0 28.6564 0 64C0 95.9415 23.4004 122.42 54.0008 127.226V82.5043H37.7466V64H54.0008V49.8968C54.0008 33.8585 63.559 24.9934 78.1752 24.9934C85.1773 24.9934 92.5034 26.2444 92.5034 26.2444V41.9947H84.4303C76.4832 41.9947 73.9992 46.9267 73.9992 51.9938V64H91.7474L88.9124 82.5043H73.9992V127.226C104.6 122.429 128 95.9505 128 64Z" fill="#1977F3"/>
<path d="M88.9124 82.5043L91.7474 64H73.9991V51.9938C73.9991 46.9358 76.4742 41.9947 84.4303 41.9947H92.5034V26.2444C92.5034 26.2444 85.1773 24.9934 78.1752 24.9934C63.559 24.9934 54.0008 33.8495 54.0008 49.8968V64H37.7466V82.5043H54.0008V127.226C57.2589 127.739 60.5979 128 64 128C67.402 128 70.7411 127.73 73.9991 127.226V82.5043H88.9124Z" fill="#FEFEFE"/>
</g>
</g>
<defs>
<clipPath id="clip0_268_6211">
<rect width="128" height="128" fill="white"/>
</clipPath>
<clipPath id="clip1_268_6211">
<rect width="128" height="128" fill="white"/>
</clipPath>
</defs>
</svg>
