<svg width="128" height="128" viewBox="0 0 128 128" fill="none" xmlns="http://www.w3.org/2000/svg">
<g clip-path="url(#clip0_240_6238)">
<g clip-path="url(#clip1_240_6238)">
<path d="M125.848 51.1162L125.668 50.6562L108.268 5.25622C107.915 4.3644 107.289 3.60698 106.48 3.09222C105.665 2.57734 104.711 2.32811 103.749 2.37899C102.786 2.42986 101.864 2.77832 101.108 3.37622C100.36 3.97622 99.82 4.80022 99.564 5.72422L87.804 41.7282H40.204L28.44 5.72822C28.1887 4.79778 27.6485 3.97111 26.8973 3.36729C26.1462 2.76346 25.2227 2.41365 24.26 2.36822C23.3004 2.3176 22.3491 2.56794 21.5387 3.08427C20.7283 3.6006 20.0995 4.35714 19.74 5.24822L2.31598 50.7202L2.13598 51.1722C-0.364414 57.7204 -0.671054 64.9035 1.26218 71.6409C3.19542 78.3784 7.264 84.306 12.856 88.5322L12.92 88.5802L13.072 88.7002L39.612 108.568L52.732 118.504L60.708 124.544C61.6452 125.252 62.7876 125.635 63.962 125.635C65.1364 125.635 66.2788 125.252 67.216 124.544L75.192 118.504L88.32 108.568L115.012 88.5802L115.084 88.5282C120.694 84.3053 124.778 78.3718 126.719 71.6235C128.66 64.8752 128.353 57.6786 125.844 51.1202L125.848 51.1162Z" fill="#E24329"/>
<path d="M125.848 51.1158L125.668 50.6558C117.181 52.4047 109.183 56.002 102.244 61.1918L64.032 90.1518C72.1526 96.2905 80.2752 102.427 88.4 108.56L115.092 88.5718L115.168 88.5198C120.763 84.2854 124.831 78.3471 126.757 71.5998C128.683 64.8525 128.364 57.662 125.848 51.1118V51.1158Z" fill="#FC6D26"/>
<path d="M39.632 108.56L52.732 118.5L60.708 124.54C61.6452 125.248 62.7876 125.63 63.962 125.63C65.1364 125.63 66.2788 125.248 67.216 124.54L75.192 118.5L88.32 108.564C88.32 108.564 76.98 100.004 63.952 90.1519L39.632 108.564V108.56Z" fill="#FCA326"/>
<path d="M25.74 61.22C18.8038 56.0281 10.8068 52.4318 2.32001 50.688L2.14001 51.14C-0.367146 57.6918 -0.677348 64.8809 1.25614 71.6242C3.18962 78.3676 7.26208 84.3001 12.86 88.528L12.924 88.576L13.076 88.696L39.616 108.564L64.036 90.152L25.74 61.22Z" fill="#FC6D26"/>
</g>
</g>
<defs>
<clipPath id="clip0_240_6238">
<rect width="128" height="128" fill="white"/>
</clipPath>
<clipPath id="clip1_240_6238">
<rect width="128" height="128" fill="white"/>
</clipPath>
</defs>
</svg>
