<svg width="128" height="128" viewBox="0 0 128 128" fill="none" xmlns="http://www.w3.org/2000/svg">
<g clip-path="url(#clip0_300_10492)">
<path d="M88.4666 15.1692V111.169C88.4666 121.911 95.8848 127.896 103.739 127.896C111.012 127.896 119.012 122.805 119.012 111.169V15.8965C119.012 6.04921 111.739 -0.103516 103.739 -0.103516C95.7393 -0.103516 88.4666 6.68193 88.4666 15.1692Z" fill="#F9AB00"/>
<path d="M48.4661 63.8958V111.168C48.4661 121.91 55.8843 127.896 63.7389 127.896C71.0116 127.896 79.0117 122.805 79.0117 111.168V64.623C79.0117 54.7758 71.7389 48.623 63.7389 48.623C55.7388 48.623 48.4661 55.4085 48.4661 63.8958Z" fill="#E37400"/>
<path d="M23.7389 127.895C32.1738 127.895 39.0117 121.057 39.0117 112.622C39.0117 104.187 32.1738 97.3496 23.7389 97.3496C15.3039 97.3496 8.46606 104.187 8.46606 112.622C8.46606 121.057 15.3039 127.895 23.7389 127.895Z" fill="#E37400"/>
</g>
<defs>
<clipPath id="clip0_300_10492">
<rect width="128" height="128" fill="white"/>
</clipPath>
</defs>
</svg>
