<svg width="128" height="128" viewBox="0 0 128 128" fill="none" xmlns="http://www.w3.org/2000/svg">
<g clip-path="url(#clip0_0_842)">
<path d="M72.4114 63.6628L84.8895 77.9257L101.669 88.6484L104.594 63.7506L101.669 39.4086L84.5677 48.8294L72.4114 63.6628Z" fill="#00832D"/>
<path d="M0 86.3371V107.549C0 112.398 3.92777 116.326 8.77714 116.326H29.9886L34.3771 100.293L29.9886 86.3371L15.4331 81.9485L0 86.3371Z" fill="#0066DA"/>
<path d="M29.9886 11L0 40.9886L15.4331 45.3771L29.9886 40.9886L34.304 27.2231L29.9886 11Z" fill="#E94235"/>
<path d="M29.9886 40.9885H0V86.3371H29.9886V40.9885Z" fill="#2684FC"/>
<path d="M120.832 23.6976L101.669 39.4087V88.6485L120.92 104.433C123.802 106.685 128.015 104.63 128.015 100.966V27.0914C128.015 23.3831 123.706 21.3497 120.832 23.6976ZM72.4114 63.6629V86.3372H29.9885V116.326H92.8914C97.7408 116.326 101.669 112.398 101.669 107.549V88.6485L72.4114 63.6629Z" fill="#00AC47"/>
<path d="M92.8914 11H29.9885V40.9886H72.4114V63.6629L101.669 39.4233V19.7771C101.669 14.9278 97.7408 11 92.8914 11Z" fill="#FFBA00"/>
</g>
<defs>
<clipPath id="clip0_0_842">
<rect width="128" height="105.326" fill="white" transform="translate(0 11)"/>
</clipPath>
</defs>
</svg>
