<svg width="128" height="128" viewBox="0 0 128 128" fill="none" xmlns="http://www.w3.org/2000/svg">
<g clip-path="url(#clip0_0_433)">
<path d="M99.6612 17.1575L89.5591 22.7185L84.5566 32.2863L89.5591 43.9911L99.0298 54.2389L109.278 48.5322L115.567 37.6773L109.278 24.2483L99.6612 17.1575Z" fill="#0066DA"/>
<path d="M60.5396 56.2787L84.5563 32.262C91.6228 37.6287 96.8196 45.3267 99.0294 54.2146L66.0763 87.192C63.1136 90.1546 58.3054 90.1546 55.3428 87.192L33.1231 64.9723C30.7433 62.5925 30.7433 58.7556 33.1231 56.4001L42.5938 46.9294C44.9736 44.5496 48.8105 44.5496 51.166 46.9294L60.5396 56.2787ZM126.227 18.4445L116.587 8.80383C114.231 6.4483 110.37 6.4483 108.014 8.80383L99.6608 17.1575C106.339 22.7427 111.778 29.7365 115.567 37.6773L126.227 27.0167C128.607 24.6612 128.607 20.8 126.227 18.4445ZM100.171 63.7095C100.171 85.5164 82.4921 103.171 60.7095 103.171C38.927 103.171 21.2483 85.5164 21.2483 63.7095C21.2483 41.9027 38.9027 24.2483 60.7095 24.2483C69.6703 24.2483 77.9268 27.2353 84.5563 32.2863L99.6608 17.1817C89.1216 8.31816 75.547 3 60.7095 3C27.1736 3 0 30.1736 0 63.7095C0 97.2455 27.1736 124.419 60.7095 124.419C94.2455 124.419 121.419 97.2455 121.419 63.7095C121.419 54.4088 119.306 45.5695 115.567 37.6773L99.0294 54.2389C99.7579 57.2743 100.171 60.4555 100.171 63.7095Z" fill="#2684FC"/>
</g>
<defs>
<clipPath id="clip0_0_433">
<rect width="128" height="121.419" fill="white" transform="translate(0 3)"/>
</clipPath>
</defs>
</svg>
