<svg width="128" height="128" viewBox="0 0 128 128" fill="none" xmlns="http://www.w3.org/2000/svg">
<path d="M43.5601 94.8225C47.5093 99.7616 51.5314 105.972 53.6363 109.723C56.1996 114.6 57.2624 117.893 59.1693 123.79C60.2843 127.02 61.3471 128 63.577 128C66.0153 128 67.1302 126.354 67.9847 123.79C69.7665 118.257 71.142 114.048 73.3197 110.036C81.7183 94.1973 95.4103 82.9436 103.121 67.522C103.121 67.522 108.196 58.1022 108.196 44.9104C108.196 32.6148 103.194 24.0703 103.194 24.0703L43.5913 94.9267L43.5601 94.8225Z" fill="#34A853"/>
<path d="M23.3449 65.8547C28.1486 76.7958 37.3078 86.3823 43.5598 94.8225L76.6956 55.5389C76.6956 55.5389 72.017 61.6659 63.5663 61.6659C54.1466 61.6659 46.4774 54.1634 46.4774 44.6812C46.4774 38.1582 50.3641 33.6359 50.3641 33.6359C25.9812 37.2621 27.3358 43.1703 23.272 65.8339L23.3449 65.8547Z" fill="#FBBC04"/>
<path d="M77.1128 2.05273C88.1581 5.60597 97.5362 13.098 103.163 24.0391L76.696 55.6118C76.696 55.6118 80.5827 51.0687 80.5827 44.5666C80.5827 34.8863 72.4134 27.5819 63.598 27.5819C55.2307 27.5819 50.4688 33.6359 50.4688 33.6359C52.5007 29.0094 73.4971 3.62616 77.1441 2.06315L77.1128 2.05273Z" fill="#4285F4"/>
<path d="M29.3887 15.9427C35.9741 8.10681 47.5196 0 63.4623 0C71.1627 0 77.0083 2.04233 77.0083 2.04233L50.4372 33.6151C48.6449 32.6429 31.1601 19.027 29.3887 15.901V15.9427Z" fill="#1A73E8"/>
<path d="M23.3452 65.8548C23.3452 65.8548 19 57.2269 19 44.8062C19 33.0316 23.6057 22.7157 29.4201 16.0469L50.4686 33.761L23.3764 65.8548H23.3452Z" fill="#EA4335"/>
</svg>
