<svg width="128" height="128" viewBox="0 0 128 128" fill="none" xmlns="http://www.w3.org/2000/svg">
<g clip-path="url(#clip0_300_10546)">
<mask id="mask0_300_10546" style="mask-type:luminance" maskUnits="userSpaceOnUse" x="17" y="-1" width="94" height="129">
<path d="M75.9142 -0.103516H26.4597C21.6597 -0.103516 17.7324 3.82376 17.7324 8.62376V119.169C17.7324 123.969 21.6597 127.896 26.4597 127.896H102.096C106.896 127.896 110.823 123.969 110.823 119.169V34.8056L75.9142 -0.103516Z" fill="white"/>
</mask>
<g mask="url(#mask0_300_10546)">
<path d="M75.9142 -0.103516H26.4597C21.6597 -0.103516 17.7324 3.82376 17.7324 8.62376V119.169C17.7324 123.969 21.6597 127.896 26.4597 127.896H102.096C106.896 127.896 110.823 123.969 110.823 119.169V34.8056L90.4597 20.2601L75.9142 -0.103516Z" fill="#F4B400"/>
</g>
<mask id="mask1_300_10546" style="mask-type:luminance" maskUnits="userSpaceOnUse" x="17" y="-1" width="94" height="129">
<path d="M75.9142 -0.103516H26.4597C21.6597 -0.103516 17.7324 3.82376 17.7324 8.62376V119.169C17.7324 123.969 21.6597 127.896 26.4597 127.896H102.096C106.896 127.896 110.823 123.969 110.823 119.169V34.8056L75.9142 -0.103516Z" fill="white"/>
</mask>
<g mask="url(#mask1_300_10546)">
<path d="M83.1872 58.0771H45.369C42.969 58.0771 41.0054 60.0408 41.0054 62.4408V100.259C41.0054 102.659 42.969 104.623 45.369 104.623H83.1872C85.5872 104.623 87.5508 102.659 87.5508 100.259V62.4408C87.5508 60.0408 85.5872 58.0771 83.1872 58.0771ZM81.7326 91.5317H46.8236V71.1681H81.7326V91.5317Z" fill="#F1F1F1"/>
</g>
<mask id="mask2_300_10546" style="mask-type:luminance" maskUnits="userSpaceOnUse" x="17" y="-1" width="94" height="129">
<path d="M75.9142 -0.103516H26.4597C21.6597 -0.103516 17.7324 3.82376 17.7324 8.62376V119.169C17.7324 123.969 21.6597 127.896 26.4597 127.896H102.096C106.896 127.896 110.823 123.969 110.823 119.169V34.8056L75.9142 -0.103516Z" fill="white"/>
</mask>
<g mask="url(#mask2_300_10546)">
<path d="M78.4673 32.2529L110.824 64.602V34.8057L78.4673 32.2529Z" fill="url(#paint0_linear_300_10546)"/>
</g>
<mask id="mask3_300_10546" style="mask-type:luminance" maskUnits="userSpaceOnUse" x="17" y="-1" width="94" height="129">
<path d="M75.9142 -0.103516H26.4597C21.6597 -0.103516 17.7324 3.82376 17.7324 8.62376V119.169C17.7324 123.969 21.6597 127.896 26.4597 127.896H102.096C106.896 127.896 110.823 123.969 110.823 119.169V34.8056L75.9142 -0.103516Z" fill="white"/>
</mask>
<g mask="url(#mask3_300_10546)">
<path d="M75.9146 -0.103516V26.0783C75.9146 30.9001 79.82 34.8056 84.6418 34.8056H110.824L75.9146 -0.103516Z" fill="#FADA80"/>
</g>
<mask id="mask4_300_10546" style="mask-type:luminance" maskUnits="userSpaceOnUse" x="17" y="-1" width="94" height="129">
<path d="M75.9142 -0.103516H26.4597C21.6597 -0.103516 17.7324 3.82376 17.7324 8.62376V119.169C17.7324 123.969 21.6597 127.896 26.4597 127.896H102.096C106.896 127.896 110.823 123.969 110.823 119.169V34.8056L75.9142 -0.103516Z" fill="white"/>
</mask>
<g mask="url(#mask4_300_10546)">
<path d="M75.9146 -0.103516V0.623757L110.096 34.8056H110.824L75.9146 -0.103516Z" fill="white" fill-opacity="0.1"/>
</g>
<mask id="mask5_300_10546" style="mask-type:luminance" maskUnits="userSpaceOnUse" x="17" y="-1" width="94" height="129">
<path d="M75.9142 -0.103516H26.4597C21.6597 -0.103516 17.7324 3.82376 17.7324 8.62376V119.169C17.7324 123.969 21.6597 127.896 26.4597 127.896H102.096C106.896 127.896 110.823 123.969 110.823 119.169V34.8056L75.9142 -0.103516Z" fill="white"/>
</mask>
<g mask="url(#mask5_300_10546)">
<path d="M26.4597 -0.103516C21.6597 -0.103516 17.7324 3.82376 17.7324 8.62376V9.35103C17.7324 4.55103 21.6597 0.623757 26.4597 0.623757H75.9142V-0.103516H26.4597Z" fill="white" fill-opacity="0.2"/>
</g>
<mask id="mask6_300_10546" style="mask-type:luminance" maskUnits="userSpaceOnUse" x="17" y="-1" width="94" height="129">
<path d="M75.9142 -0.103516H26.4597C21.6597 -0.103516 17.7324 3.82376 17.7324 8.62376V119.169C17.7324 123.969 21.6597 127.896 26.4597 127.896H102.096C106.896 127.896 110.823 123.969 110.823 119.169V34.8056L75.9142 -0.103516Z" fill="white"/>
</mask>
<g mask="url(#mask6_300_10546)">
<path d="M102.096 127.17H26.4597C21.6597 127.17 17.7324 123.242 17.7324 118.442V119.17C17.7324 123.97 21.6597 127.897 26.4597 127.897H102.096C106.896 127.897 110.823 123.97 110.823 119.17V118.442C110.823 123.242 106.896 127.17 102.096 127.17Z" fill="#BF360C" fill-opacity="0.2"/>
</g>
<mask id="mask7_300_10546" style="mask-type:luminance" maskUnits="userSpaceOnUse" x="17" y="-1" width="94" height="129">
<path d="M75.9142 -0.103516H26.4597C21.6597 -0.103516 17.7324 3.82376 17.7324 8.62376V119.169C17.7324 123.969 21.6597 127.896 26.4597 127.896H102.096C106.896 127.896 110.823 123.969 110.823 119.169V34.8056L75.9142 -0.103516Z" fill="white"/>
</mask>
<g mask="url(#mask7_300_10546)">
<path d="M84.6418 34.8054C79.82 34.8054 75.9146 30.8999 75.9146 26.0781V26.8054C75.9146 31.6272 79.82 35.5327 84.6418 35.5327H110.824V34.8054H84.6418Z" fill="#BF360C" fill-opacity="0.1"/>
</g>
<path d="M75.9142 -0.103516H26.4597C21.6597 -0.103516 17.7324 3.82376 17.7324 8.62376V119.169C17.7324 123.969 21.6597 127.896 26.4597 127.896H102.096C106.896 127.896 110.823 123.969 110.823 119.169V34.8056L75.9142 -0.103516Z" fill="url(#paint1_radial_300_10546)"/>
</g>
<defs>
<linearGradient id="paint0_linear_300_10546" x1="1696.46" y1="310.006" x2="1696.46" y2="3267.61" gradientUnits="userSpaceOnUse">
<stop stop-color="#BF360C" stop-opacity="0.2"/>
<stop offset="1" stop-color="#BF360C" stop-opacity="0.02"/>
</linearGradient>
<radialGradient id="paint1_radial_300_10546" cx="0" cy="0" r="1" gradientUnits="userSpaceOnUse" gradientTransform="translate(312.649 252.881) scale(15010.8 15010.8)">
<stop stop-color="white" stop-opacity="0.1"/>
<stop offset="1" stop-color="white" stop-opacity="0"/>
</radialGradient>
<clipPath id="clip0_300_10546">
<rect width="128" height="128" fill="white"/>
</clipPath>
</defs>
</svg>
