<?xml version="1.0" encoding="UTF-8" standalone="no"?>
<!DOCTYPE svg PUBLIC "-//W3C//DTD SVG 1.1//EN" "http://www.w3.org/Graphics/SVG/1.1/DTD/svg11.dtd">
<svg xmlns="http://www.w3.org/2000/svg" version="1.1" viewBox="-0.00 -0.00 850.00 850.00" width="128" height="128">
<g stroke-width="2.00" fill="none" stroke-linecap="butt">
<path stroke="#808080" vector-effect="non-scaling-stroke" d="
  M 611.35 491.05
  Q 617.49 471.80 621.58 453.81
  Q 627.31 428.66 628.52 405.52
  C 630.32 370.98 623.69 333.96 594.04 312.26
  C 580.18 302.12 561.83 296.94 544.71 295.60
  C 519.70 293.64 494.99 298.11 470.19 305.45
  A 1.27 1.26 64.9 0 1 468.77 304.93
  Q 448.26 273.49 420.36 250.74
  Q 397.09 231.77 370.25 223.15
  C 330.05 210.23 287.03 220.53 253.13 245.18
  C 218.82 270.13 193.52 306.51 175.83 344.57
  C 153.99 391.54 140.92 442.81 133.61 494.43
  Q 124.69 557.46 125.07 622.69
  A 0.84 0.83 -73.7 0 0 125.43 623.36
  L 138.39 631.97
  A 1.12 1.09 49.8 0 0 139.43 632.07
  Q 178.20 615.76 221.30 601.08
  Q 366.20 551.72 516.55 525.55
  A 0.33 0.32 -8.9 0 1 516.94 525.83
  Q 522.87 574.07 522.86 622.36
  A 1.11 1.10 -71.9 0 0 523.31 623.25
  L 535.51 632.23
  A 0.90 0.88 53.8 0 0 536.31 632.36
  Q 590.93 614.51 642.27 590.25
  Q 666.39 578.86 688.17 564.68
  C 701.60 555.94 724.34 539.01 724.95 521.29
  C 725.59 502.66 706.46 495.03 691.26 492.43
  Q 673.77 489.45 653.74 489.51
  Q 632.43 489.57 611.60 491.36
  A 0.24 0.24 0.0 0 1 611.35 491.05"
/>
<path stroke="#808080" vector-effect="non-scaling-stroke" d="
  M 147.58 584.41
  A 0.24 0.24 0.0 0 0 148.01 584.56
  C 182.28 535.10 220.71 487.64 262.63 444.88
  C 297.23 409.59 335.61 376.86 377.05 350.05
  Q 410.99 328.09 448.48 312.97
  A 0.14 0.13 62.6 0 0 448.54 312.77
  Q 432.15 286.72 409.00 267.26
  C 382.79 245.21 349.95 235.24 315.78 240.88
  Q 298.14 243.80 283.26 251.37
  C 255.69 265.41 234.05 288.71 217.43 314.94
  C 196.38 348.16 181.82 385.62 171.45 423.70
  C 157.32 475.68 149.81 529.83 147.58 584.41"
/>
<path stroke="#808080" vector-effect="non-scaling-stroke" d="
  M 536.28 499.92
  A 0.45 0.45 0.0 0 0 536.78 500.30
  L 587.92 493.42
  A 0.27 0.27 0.0 0 0 588.13 493.26
  Q 600.34 459.61 605.26 425.27
  Q 608.40 403.33 606.59 382.70
  C 604.58 359.90 596.24 337.85 575.66 326.38
  C 562.77 319.20 546.19 316.58 530.74 316.89
  Q 506.11 317.40 481.83 325.04
  A 0.53 0.53 0.0 0 0 481.53 325.80
  C 497.65 354.28 509.66 385.17 518.81 417.20
  Q 530.22 457.17 536.28 499.92"
/>
<path stroke="#808080" vector-effect="non-scaling-stroke" d="
  M 165.46 598.27
  Q 219.89 577.81 280.93 559.67
  Q 397.81 524.93 513.21 504.35
  A 0.61 0.60 84.0 0 0 513.71 503.73
  Q 513.66 502.37 513.19 499.27
  Q 505.05 446.31 488.26 396.47
  Q 477.00 363.05 460.90 333.11
  A 1.13 1.12 65.4 0 0 459.51 332.59
  Q 441.79 339.18 422.99 349.01
  Q 379.52 371.73 339.52 404.04
  Q 297.70 437.83 260.24 478.50
  Q 208.81 534.33 165.24 598.00
  A 0.18 0.18 0.0 0 0 165.46 598.27"
/>
<path stroke="#808080" vector-effect="non-scaling-stroke" d="
  M 561.34 600.70
  Q 561.74 600.73 562.83 600.33
  Q 608.73 583.69 651.49 561.21
  C 663.97 554.65 677.88 546.40 690.00 537.01
  C 693.01 534.68 707.54 522.75 701.85 518.95
  C 695.39 514.63 686.40 513.18 678.24 512.25
  Q 667.19 510.99 653.75 511.04
  Q 628.67 511.14 603.87 513.70
  A 0.85 0.84 -81.9 0 0 603.17 514.23
  Q 585.93 559.20 561.21 600.46
  A 0.16 0.16 0.0 0 0 561.34 600.70"
/>
<path stroke="#808080" vector-effect="non-scaling-stroke" d="
  M 579.15 516.28
  L 539.72 521.58
  A 0.59 0.59 0.0 0 0 539.21 522.23
  Q 542.76 553.87 543.96 586.13
  A 0.25 0.25 0.0 0 0 544.43 586.25
  Q 564.55 552.89 579.39 516.59
  A 0.23 0.23 0.0 0 0 579.15 516.28"
/>
</g>
<path fill="#000000" d="
  M 850.00 0.00
  L 850.00 850.00
  L 0.00 850.00
  L 0.00 0.00
  L 850.00 0.00
  Z
  M 611.35 491.05
  Q 617.49 471.80 621.58 453.81
  Q 627.31 428.66 628.52 405.52
  C 630.32 370.98 623.69 333.96 594.04 312.26
  C 580.18 302.12 561.83 296.94 544.71 295.60
  C 519.70 293.64 494.99 298.11 470.19 305.45
  A 1.27 1.26 64.9 0 1 468.77 304.93
  Q 448.26 273.49 420.36 250.74
  Q 397.09 231.77 370.25 223.15
  C 330.05 210.23 287.03 220.53 253.13 245.18
  C 218.82 270.13 193.52 306.51 175.83 344.57
  C 153.99 391.54 140.92 442.81 133.61 494.43
  Q 124.69 557.46 125.07 622.69
  A 0.84 0.83 -73.7 0 0 125.43 623.36
  L 138.39 631.97
  A 1.12 1.09 49.8 0 0 139.43 632.07
  Q 178.20 615.76 221.30 601.08
  Q 366.20 551.72 516.55 525.55
  A 0.33 0.32 -8.9 0 1 516.94 525.83
  Q 522.87 574.07 522.86 622.36
  A 1.11 1.10 -71.9 0 0 523.31 623.25
  L 535.51 632.23
  A 0.90 0.88 53.8 0 0 536.31 632.36
  Q 590.93 614.51 642.27 590.25
  Q 666.39 578.86 688.17 564.68
  C 701.60 555.94 724.34 539.01 724.95 521.29
  C 725.59 502.66 706.46 495.03 691.26 492.43
  Q 673.77 489.45 653.74 489.51
  Q 632.43 489.57 611.60 491.36
  A 0.24 0.24 0.0 0 1 611.35 491.05
  Z"
/>
<path fill="#ffffff" d="
  M 611.35 491.05
  A 0.24 0.24 0.0 0 0 611.60 491.36
  Q 632.43 489.57 653.74 489.51
  Q 673.77 489.45 691.26 492.43
  C 706.46 495.03 725.59 502.66 724.95 521.29
  C 724.34 539.01 701.60 555.94 688.17 564.68
  Q 666.39 578.86 642.27 590.25
  Q 590.93 614.51 536.31 632.36
  A 0.90 0.88 53.8 0 1 535.51 632.23
  L 523.31 623.25
  A 1.11 1.10 -71.9 0 1 522.86 622.36
  Q 522.87 574.07 516.94 525.83
  A 0.33 0.32 -8.9 0 0 516.55 525.55
  Q 366.20 551.72 221.30 601.08
  Q 178.20 615.76 139.43 632.07
  A 1.12 1.09 49.8 0 1 138.39 631.97
  L 125.43 623.36
  A 0.84 0.83 -73.7 0 1 125.07 622.69
  Q 124.69 557.46 133.61 494.43
  C 140.92 442.81 153.99 391.54 175.83 344.57
  C 193.52 306.51 218.82 270.13 253.13 245.18
  C 287.03 220.53 330.05 210.23 370.25 223.15
  Q 397.09 231.77 420.36 250.74
  Q 448.26 273.49 468.77 304.93
  A 1.27 1.26 64.9 0 0 470.19 305.45
  C 494.99 298.11 519.70 293.64 544.71 295.60
  C 561.83 296.94 580.18 302.12 594.04 312.26
  C 623.69 333.96 630.32 370.98 628.52 405.52
  Q 627.31 428.66 621.58 453.81
  Q 617.49 471.80 611.35 491.05
  Z
  M 147.58 584.41
  A 0.24 0.24 0.0 0 0 148.01 584.56
  C 182.28 535.10 220.71 487.64 262.63 444.88
  C 297.23 409.59 335.61 376.86 377.05 350.05
  Q 410.99 328.09 448.48 312.97
  A 0.14 0.13 62.6 0 0 448.54 312.77
  Q 432.15 286.72 409.00 267.26
  C 382.79 245.21 349.95 235.24 315.78 240.88
  Q 298.14 243.80 283.26 251.37
  C 255.69 265.41 234.05 288.71 217.43 314.94
  C 196.38 348.16 181.82 385.62 171.45 423.70
  C 157.32 475.68 149.81 529.83 147.58 584.41
  Z
  M 536.28 499.92
  A 0.45 0.45 0.0 0 0 536.78 500.30
  L 587.92 493.42
  A 0.27 0.27 0.0 0 0 588.13 493.26
  Q 600.34 459.61 605.26 425.27
  Q 608.40 403.33 606.59 382.70
  C 604.58 359.90 596.24 337.85 575.66 326.38
  C 562.77 319.20 546.19 316.58 530.74 316.89
  Q 506.11 317.40 481.83 325.04
  A 0.53 0.53 0.0 0 0 481.53 325.80
  C 497.65 354.28 509.66 385.17 518.81 417.20
  Q 530.22 457.17 536.28 499.92
  Z
  M 165.46 598.27
  Q 219.89 577.81 280.93 559.67
  Q 397.81 524.93 513.21 504.35
  A 0.61 0.60 84.0 0 0 513.71 503.73
  Q 513.66 502.37 513.19 499.27
  Q 505.05 446.31 488.26 396.47
  Q 477.00 363.05 460.90 333.11
  A 1.13 1.12 65.4 0 0 459.51 332.59
  Q 441.79 339.18 422.99 349.01
  Q 379.52 371.73 339.52 404.04
  Q 297.70 437.83 260.24 478.50
  Q 208.81 534.33 165.24 598.00
  A 0.18 0.18 0.0 0 0 165.46 598.27
  Z
  M 561.34 600.70
  Q 561.74 600.73 562.83 600.33
  Q 608.73 583.69 651.49 561.21
  C 663.97 554.65 677.88 546.40 690.00 537.01
  C 693.01 534.68 707.54 522.75 701.85 518.95
  C 695.39 514.63 686.40 513.18 678.24 512.25
  Q 667.19 510.99 653.75 511.04
  Q 628.67 511.14 603.87 513.70
  A 0.85 0.84 -81.9 0 0 603.17 514.23
  Q 585.93 559.20 561.21 600.46
  A 0.16 0.16 0.0 0 0 561.34 600.70
  Z
  M 579.15 516.28
  L 539.72 521.58
  A 0.59 0.59 0.0 0 0 539.21 522.23
  Q 542.76 553.87 543.96 586.13
  A 0.25 0.25 0.0 0 0 544.43 586.25
  Q 564.55 552.89 579.39 516.59
  A 0.23 0.23 0.0 0 0 579.15 516.28
  Z"
/>
<path fill="#000000" d="
  M 147.58 584.41
  C 149.81 529.83 157.32 475.68 171.45 423.70
  C 181.82 385.62 196.38 348.16 217.43 314.94
  C 234.05 288.71 255.69 265.41 283.26 251.37
  Q 298.14 243.80 315.78 240.88
  C 349.95 235.24 382.79 245.21 409.00 267.26
  Q 432.15 286.72 448.54 312.77
  A 0.14 0.13 62.6 0 1 448.48 312.97
  Q 410.99 328.09 377.05 350.05
  C 335.61 376.86 297.23 409.59 262.63 444.88
  C 220.71 487.64 182.28 535.10 148.01 584.56
  A 0.24 0.24 0.0 0 1 147.58 584.41
  Z"
/>
<path fill="#000000" d="
  M 536.28 499.92
  Q 530.22 457.17 518.81 417.20
  C 509.66 385.17 497.65 354.28 481.53 325.80
  A 0.53 0.53 0.0 0 1 481.83 325.04
  Q 506.11 317.40 530.74 316.89
  C 546.19 316.58 562.77 319.20 575.66 326.38
  C 596.24 337.85 604.58 359.90 606.59 382.70
  Q 608.40 403.33 605.26 425.27
  Q 600.34 459.61 588.13 493.26
  A 0.27 0.27 0.0 0 1 587.92 493.42
  L 536.78 500.30
  A 0.45 0.45 0.0 0 1 536.28 499.92
  Z"
/>
<path fill="#000000" d="
  M 165.24 598.00
  Q 208.81 534.33 260.24 478.50
  Q 297.70 437.83 339.52 404.04
  Q 379.52 371.73 422.99 349.01
  Q 441.79 339.18 459.51 332.59
  A 1.13 1.12 65.4 0 1 460.90 333.11
  Q 477.00 363.05 488.26 396.47
  Q 505.05 446.31 513.19 499.27
  Q 513.66 502.37 513.71 503.73
  A 0.61 0.60 84.0 0 1 513.21 504.35
  Q 397.81 524.93 280.93 559.67
  Q 219.89 577.81 165.46 598.27
  A 0.18 0.18 0.0 0 1 165.24 598.00
  Z"
/>
<path fill="#000000" d="
  M 561.34 600.70
  A 0.16 0.16 0.0 0 1 561.21 600.46
  Q 585.93 559.20 603.17 514.23
  A 0.85 0.84 -81.9 0 1 603.87 513.70
  Q 628.67 511.14 653.75 511.04
  Q 667.19 510.99 678.24 512.25
  C 686.40 513.18 695.39 514.63 701.85 518.95
  C 707.54 522.75 693.01 534.68 690.00 537.01
  C 677.88 546.40 663.97 554.65 651.49 561.21
  Q 608.73 583.69 562.83 600.33
  Q 561.74 600.73 561.34 600.70
  Z"
/>
<path fill="#000000" d="
  M 579.15 516.28
  A 0.23 0.23 0.0 0 1 579.39 516.59
  Q 564.55 552.89 544.43 586.25
  A 0.25 0.25 0.0 0 1 543.96 586.13
  Q 542.76 553.87 539.21 522.23
  A 0.59 0.59 0.0 0 1 539.72 521.58
  L 579.15 516.28
  Z"
/>
</svg>