<svg width="128" height="128" viewBox="0 0 128 128" fill="none" xmlns="http://www.w3.org/2000/svg">
<g clip-path="url(#clip0_168_637)">
<path d="M48.8105 45.7717L48.8117 45.7673L75.6823 61.8624L91.694 55.1244C94.9477 53.7178 98.456 52.9965 102.001 53C102.591 53 103.175 53.0268 103.756 53.0656C101.831 45.5592 97.7669 38.7736 92.0581 33.5333C86.3493 28.293 79.2414 24.8236 71.5981 23.5468C63.9547 22.2699 56.1051 23.2406 49.003 26.3408C41.9009 29.441 35.8522 34.5373 31.5918 41.0103C31.7287 41.0086 31.8635 41 32.0007 41C37.9393 40.9919 43.7618 42.6447 48.8105 45.7717Z" fill="#0364B8"/>
<path d="M48.811 45.7673L48.8098 45.7717C43.7611 42.6448 37.9386 40.992 32 41C31.8628 41 31.7278 41.0086 31.5911 41.0103C25.7787 41.0823 20.0958 42.7368 15.153 45.7959C10.2103 48.8551 6.1946 53.2033 3.53748 58.3733C0.880366 63.5433 -0.317721 69.3396 0.0719724 75.1394C0.461666 80.9391 2.42441 86.5231 5.74928 91.2911L29.4453 81.3194L39.979 76.8867L63.4331 67.0168L75.6816 61.8625L48.811 45.7673Z" fill="#0078D4"/>
<path d="M103.755 53.0656C103.174 53.0268 102.591 53 102 53C98.4553 52.9966 94.9477 53.7205 91.6941 55.1271L75.6816 61.8625L80.3247 64.6436L95.5444 73.76L102.185 77.7375L124.89 91.3378C126.953 87.5079 128.022 83.2215 128 78.8713C127.977 74.521 126.863 70.246 124.76 66.4379C122.657 62.6297 119.632 59.41 115.962 57.0738C112.293 54.7375 108.095 53.3594 103.755 53.0656Z" fill="#1490DF"/>
<path d="M102.185 77.7374L95.5451 73.7599L80.3254 64.6435L75.6823 61.8624L63.4338 67.0167L39.9797 76.8866L29.446 81.3193L5.75 91.291C8.69466 95.5247 12.6202 98.9828 17.1914 101.37C21.7626 103.757 26.8437 105.003 32.0007 105H102.001C106.694 105.001 111.3 103.732 115.33 101.327C119.361 98.9211 122.664 95.4694 124.891 91.3377L102.185 77.7374Z" fill="#28A8EA"/>
</g>
<defs>
<clipPath id="clip0_168_637">
<rect width="128" height="82" fill="white" transform="translate(0 23)"/>
</clipPath>
</defs>
</svg>
