<svg width="128" height="128" viewBox="0 0 128 128" fill="none" xmlns="http://www.w3.org/2000/svg">
<g clip-path="url(#clip0_0_142)">
<g clip-path="url(#clip1_0_142)">
<path d="M127.542 66.6442C127.549 65.6433 127.032 64.7117 126.179 64.1884H126.164L126.11 64.1586L81.7569 37.9037C81.5653 37.7743 81.3666 37.6561 81.1615 37.5495C79.449 36.666 77.4147 36.666 75.7021 37.5495C75.4971 37.6561 75.2983 37.7743 75.1068 37.9037L30.7534 64.1586L30.6999 64.1884C29.3443 65.0313 28.9287 66.8137 29.7717 68.1693C30.0201 68.5687 30.3622 68.9014 30.7683 69.1387L75.1218 95.3936C75.314 95.5218 75.5127 95.6401 75.7172 95.7478C77.4297 96.6313 79.464 96.6313 81.1765 95.7478C81.381 95.6401 81.5797 95.5219 81.7719 95.3936L126.125 69.1387C127.011 68.6221 127.552 67.6699 127.542 66.6442Z" fill="#0A2767"/>
<path d="M35.924 49.1141H65.0306V75.7947H35.924V49.1141ZM121.589 21.993V9.78838C121.659 6.73693 119.243 4.20571 116.192 4.13259H40.6601C37.6086 4.20571 35.1933 6.73693 35.2632 9.78838V21.993L79.9143 33.9L121.589 21.993Z" fill="#0364B8"/>
<path d="M35.2634 21.993H65.0308V48.7837H35.2634V21.993Z" fill="#0078D4"/>
<path d="M94.7982 21.993H65.0308V48.7837L94.7982 75.5744H121.589V48.7837L94.7982 21.993Z" fill="#28A8EA"/>
<path d="M65.0308 48.7837H94.7982V75.5744H65.0308V48.7837Z" fill="#0078D4"/>
<path d="M65.0308 75.5744H94.7982V102.365H65.0308V75.5744Z" fill="#0364B8"/>
<path d="M35.9243 75.7947H65.0309V100.049H35.9243V75.7947Z" fill="#14447D"/>
<path d="M94.7983 75.5744H121.589V102.365H94.7983V75.5744Z" fill="#0078D4"/>
<path d="M126.179 68.975L126.122 69.0047L81.7687 93.9498C81.5752 94.0689 81.3788 94.182 81.1733 94.2832C80.42 94.6419 79.6018 94.8444 78.7681 94.8786L76.345 93.4616C76.1403 93.3589 75.9415 93.2446 75.7497 93.1193L30.8009 67.4657H30.7801L29.3096 66.6442V117.142C29.3325 120.511 32.0815 123.224 35.4506 123.202H121.496C121.547 123.202 121.592 123.178 121.645 123.178C122.357 123.133 123.058 122.987 123.729 122.744C124.019 122.621 124.298 122.476 124.565 122.309C124.765 122.196 125.107 121.949 125.107 121.949C126.632 120.821 127.534 119.039 127.542 117.142V66.6442C127.541 67.61 127.02 68.5006 126.179 68.975Z" fill="url(#paint0_linear_0_142)"/>
<path opacity="0.5" d="M125.161 66.4447V69.5406L78.7832 101.472L30.7683 67.4866C30.7683 67.4702 30.755 67.4568 30.7386 67.4568L26.333 64.8075V62.5749L28.1488 62.5451L31.9888 64.748L32.0781 64.7777L32.4055 64.9861C32.4055 64.9861 77.5329 90.7349 77.652 90.7944L79.3785 91.8065C79.5273 91.747 79.6761 91.6875 79.8547 91.6279C79.9441 91.5683 124.655 66.4149 124.655 66.4149L125.161 66.4447Z" fill="#0A2767"/>
<path d="M126.179 68.975L126.123 69.0077L81.7691 93.9528C81.5756 94.0718 81.3792 94.1849 81.1737 94.2861C79.4512 95.1276 77.4369 95.1276 75.7144 94.2861C75.5104 94.1851 75.3117 94.0738 75.119 93.9528L30.7657 69.0077L30.7121 68.975C29.8558 68.5107 29.3189 67.6182 29.3101 66.6442V117.142C29.3314 120.51 32.0794 123.224 35.4478 123.202C35.4478 123.202 35.448 123.202 35.4481 123.202H121.404C124.773 123.224 127.521 120.51 127.543 117.142C127.543 117.142 127.543 117.142 127.543 117.142V66.6442C127.541 67.61 127.02 68.5006 126.179 68.975Z" fill="#1490DF"/>
<path opacity="0.1" d="M82.4148 93.5837L81.751 93.9558C81.5586 94.0782 81.3599 94.1906 81.1556 94.2921C80.4243 94.6511 79.629 94.8616 78.8159 94.9113L95.6911 114.867L125.128 121.961C125.935 121.352 126.576 120.55 126.995 119.63L82.4148 93.5837Z" fill="black"/>
<path opacity="0.05" d="M85.4213 91.8929L81.751 93.9558C81.5586 94.0782 81.3599 94.1906 81.1556 94.2921C80.4243 94.6511 79.629 94.8616 78.8159 94.9113L86.7221 116.71L125.137 121.952C126.65 120.816 127.541 119.034 127.542 117.142V116.49L85.4213 91.8929Z" fill="black"/>
<path d="M35.5314 123.202H121.396C122.717 123.209 124.005 122.792 125.072 122.012L76.3425 93.4676C76.1378 93.3649 75.939 93.2506 75.7472 93.1253L30.7984 67.4717H30.7776L29.3101 66.6442V116.969C29.3067 120.408 32.0921 123.199 35.5314 123.202Z" fill="#28A8EA"/>
<path opacity="0.1" d="M70.984 33.4029V96.8968C70.9787 99.123 69.625 101.124 67.5607 101.957C66.9212 102.232 66.2325 102.374 65.5365 102.374H29.3096V30.9233H35.2631V27.9465H65.5366C68.5438 27.9579 70.9775 30.3956 70.984 33.4029Z" fill="black"/>
<path opacity="0.2" d="M68.0073 36.3796V99.8735C68.0147 100.593 67.8623 101.304 67.5607 101.957C66.734 103.995 64.7588 105.332 62.5598 105.342H29.3096V30.9233H62.5598C63.4235 30.9146 64.2747 31.13 65.0305 31.5484C66.8552 32.4677 68.0066 34.3364 68.0073 36.3796Z" fill="black"/>
<path opacity="0.2" d="M68.0073 36.3796V93.92C67.9927 96.9259 65.5657 99.3623 62.5599 99.3883H29.3096V30.9233H62.5598C63.4235 30.9146 64.2747 31.13 65.0305 31.5484C66.8552 32.4677 68.0066 34.3364 68.0073 36.3796Z" fill="black"/>
<path opacity="0.2" d="M65.0305 36.3796V93.92C65.0273 96.9306 62.5935 99.3736 59.5831 99.3883H29.3096V30.9233H59.583C62.5932 30.9249 65.0321 33.3665 65.0304 36.3767C65.0305 36.3777 65.0305 36.3786 65.0305 36.3796Z" fill="black"/>
<path d="M4.99883 30.9233H59.5744C62.5879 30.9233 65.0308 33.3662 65.0308 36.3796V90.9552C65.0308 93.9687 62.5879 96.4116 59.5744 96.4116H4.99883C1.98534 96.4116 -0.45752 93.9686 -0.45752 90.9552V36.3796C-0.45752 33.3662 1.98541 30.9233 4.99883 30.9233Z" fill="url(#paint1_linear_0_142)"/>
<path d="M16.5963 53.8085C17.9411 50.9433 20.1118 48.5455 22.8296 46.9233C25.8395 45.2001 29.2665 44.341 32.7333 44.4406C35.9464 44.371 39.117 45.1855 41.8987 46.7952C44.5141 48.3549 46.6205 50.6402 47.9623 53.3738C49.4235 56.386 50.1518 59.701 50.0877 63.0482C50.1585 66.5464 49.4092 70.0126 47.8998 73.1691C46.526 76.0005 44.3528 78.3672 41.6486 79.9769C38.7597 81.636 35.4714 82.4719 32.1409 82.3941C28.8591 82.4733 25.6187 81.6495 22.7731 80.0127C20.1351 78.4509 18.0022 76.163 16.6291 73.4221C15.1592 70.4535 14.4222 67.1759 14.4799 63.8638C14.4187 60.3954 15.1422 56.958 16.5963 53.8085ZM23.2404 69.9721C23.9574 71.7835 25.1733 73.3544 26.747 74.5028C28.3499 75.623 30.2692 76.201 32.2242 76.1519C34.3061 76.2342 36.3583 75.6365 38.0705 74.4491C39.6243 73.3045 40.8082 71.7293 41.4759 69.9185C42.2222 67.8964 42.5906 65.7542 42.5624 63.5989C42.5855 61.423 42.2392 59.259 41.5384 57.199C40.9194 55.339 39.7736 53.6989 38.2402 52.4779C36.5709 51.2343 34.5242 50.6035 32.4444 50.6918C30.4471 50.6401 28.4848 51.2226 26.8393 52.3558C25.239 53.5089 24 55.0938 23.2672 56.9251C21.6416 61.1227 21.6331 65.7746 23.2433 69.9781L23.2404 69.9721Z" fill="white"/>
<path d="M94.7983 21.993H121.589V48.7837H94.7983V21.993Z" fill="#50D9FF"/>
</g>
</g>
<defs>
<linearGradient id="paint0_linear_0_142" x1="78.4258" y1="66.6442" x2="78.4258" y2="123.202" gradientUnits="userSpaceOnUse">
<stop stop-color="#35B8F1"/>
<stop offset="1" stop-color="#28A8EA"/>
</linearGradient>
<linearGradient id="paint1_linear_0_142" x1="10.9191" y1="26.6598" x2="53.6542" y2="100.675" gradientUnits="userSpaceOnUse">
<stop stop-color="#1784D9"/>
<stop offset="0.5" stop-color="#107AD5"/>
<stop offset="1" stop-color="#0A63C9"/>
</linearGradient>
<clipPath id="clip0_0_142">
<rect width="128" height="128" fill="white"/>
</clipPath>
<clipPath id="clip1_0_142">
<rect width="128" height="119.07" fill="white" transform="translate(-0.45752 4.13259)"/>
</clipPath>
</defs>
</svg>
