<svg width="128" height="128" viewBox="0 0 128 128" fill="none" xmlns="http://www.w3.org/2000/svg">
<path fill-rule="evenodd" clip-rule="evenodd" d="M119.01 38.3311H103.896V0L67.0639 34.3197V0H60.9456V34.3197L24.1136 0V38.3311H9V93.5587H24.0731V128L60.9456 95.1795V128H67.0639V95.1795L103.936 128V93.5587H119.01V38.3311ZM97.737 14.1007V38.3311H71.7642L97.737 14.1007ZM30.232 14.1007L56.2048 38.3311H30.232V14.1007ZM15.1184 87.4403V44.49H56.1238L24.0731 73.9474V87.4403H15.1589H15.1184ZM30.1915 76.6217L60.9456 48.3799V86.9946L30.1915 114.345V76.6217ZM97.7775 114.345L67.0234 86.9946V48.3799L97.7775 76.6217V114.345ZM112.851 87.4403H103.936V73.9474L71.8857 44.49H112.891V87.4403H112.851Z" fill="#20808D"/>
</svg>
