<svg width="128" height="128" viewBox="0 0 128 128" fill="none" xmlns="http://www.w3.org/2000/svg">
<g clip-path="url(#clip0_60_20651)">
<mask id="mask0_60_20651" style="mask-type:luminance" maskUnits="userSpaceOnUse" x="0" y="19" width="128" height="90">
<path d="M0.0281372 19.4579H127.608V108.748H0.0281372V19.4579Z" fill="white"/>
</mask>
<g mask="url(#mask0_60_20651)">
<path fill-rule="evenodd" clip-rule="evenodd" d="M53.1027 29.1995C57.2179 24.9122 62.9479 22.2518 69.2846 22.2518C77.7077 22.2518 85.0576 26.9489 88.9703 33.9228C92.4712 32.3585 96.2634 31.5522 100.098 31.5569C115.291 31.5569 127.608 43.9814 127.608 59.3086C127.608 74.6357 115.291 87.0606 100.098 87.0606C98.2426 87.0606 96.4309 86.874 94.6783 86.5205C91.2326 92.6669 84.6638 96.8205 77.1263 96.8205C74.0776 96.8247 71.0682 96.1321 68.3281 94.7955C64.8351 103.014 56.6937 108.777 47.2081 108.777C37.3277 108.777 28.9069 102.526 25.6769 93.7588C24.2373 94.0626 22.7699 94.2153 21.2986 94.2146C9.5353 94.2146 0 84.5794 0 72.6942C0 64.7282 4.28355 57.7735 10.6503 54.0531C9.30134 50.9469 8.6072 47.5961 8.61116 44.2097C8.61116 30.54 19.7078 19.4579 33.3958 19.4579C41.4321 19.4579 48.5744 23.2782 53.1027 29.1995Z" fill="#00A1E0"/>
</g>
<path fill-rule="evenodd" clip-rule="evenodd" d="M18.4826 65.7765C18.4024 65.9856 18.5112 66.0292 18.537 66.0663C18.7766 66.2398 19.0199 66.3654 19.2656 66.5065C20.5667 67.1953 21.7965 67.3974 23.0812 67.3974C25.6989 67.3974 27.3249 66.0058 27.3249 63.7646V63.7206C27.3249 61.6482 25.4893 60.8952 23.7691 60.3518L23.5445 60.2791C22.2471 59.858 21.1275 59.4937 21.1275 58.639V58.5954C21.1275 57.8635 21.782 57.3257 22.7962 57.3257C23.9238 57.3257 25.26 57.7003 26.1218 58.1762C26.1218 58.1762 26.3759 58.3403 26.4683 58.0951C26.5185 57.9624 26.9541 56.7893 27.0005 56.6623C27.0502 56.5249 26.963 56.4213 26.8734 56.3678C25.8893 55.7681 24.53 55.3602 23.123 55.3602L22.8618 55.3612C20.4659 55.3612 18.793 56.81 18.793 58.8833V58.9278C18.793 61.1127 20.6385 61.8231 22.3672 62.3168L22.6447 62.403C23.9036 62.7894 24.9909 63.1232 24.9909 64.0089V64.053C24.9909 64.8641 24.2843 65.4666 23.1464 65.4666C22.7052 65.4666 21.2967 65.4591 19.7748 64.4965C19.5905 64.3892 19.4855 64.3118 19.3434 64.2251C19.2684 64.1796 19.0809 64.0975 18.9993 64.3432L18.4826 65.7765ZM56.8029 65.7765C56.7227 65.9856 56.8315 66.0292 56.8582 66.0663C57.0969 66.2398 57.3407 66.3654 57.5859 66.5065C58.8875 67.1953 60.1173 67.3974 61.4015 67.3974C64.0192 67.3974 65.6457 66.0058 65.6457 63.7646V63.7206C65.6457 61.6482 63.8105 60.8952 62.0898 60.3518L61.8652 60.2791C60.5679 59.858 59.4478 59.4937 59.4478 58.639V58.5954C59.4478 57.8635 60.1028 57.3257 61.1174 57.3257C62.2445 57.3257 63.5803 57.7003 64.4421 58.1762C64.4421 58.1762 64.6962 58.3403 64.7891 58.0951C64.8388 57.9624 65.2748 56.7893 65.3208 56.6623C65.3709 56.5249 65.2833 56.4213 65.1942 56.3678C64.2096 55.7681 62.8508 55.3602 61.4437 55.3602L61.1821 55.3612C58.7867 55.3612 57.1138 56.81 57.1138 58.8833V58.9278C57.1138 61.1127 58.9587 61.8231 60.6879 62.3168L60.965 62.403C62.2244 62.7894 63.3117 63.1232 63.3117 64.0089V64.053C63.3117 64.8641 62.6046 65.4666 61.4676 65.4666C61.0255 65.4666 59.617 65.4591 58.0956 64.4965C57.9113 64.3892 57.8035 64.3151 57.6637 64.2251C57.6164 64.195 57.3955 64.1088 57.3201 64.3432L56.8029 65.7765ZM82.9632 61.3861C82.9632 62.652 82.7269 63.6516 82.2627 64.3563C81.8013 65.0549 81.1051 65.3949 80.1341 65.3949C79.163 65.3949 78.4705 65.0554 78.0167 64.3573C77.5586 63.6521 77.326 62.652 77.326 61.3861C77.326 60.1211 77.5586 59.1247 78.0167 58.4271C78.4705 57.7355 79.163 57.3998 80.1341 57.3998C81.1051 57.3998 81.8013 57.736 82.2627 58.4275C82.7278 59.1247 82.9632 60.1211 82.9632 61.3861ZM85.149 59.0385C84.9338 58.3122 84.5995 57.6731 84.1546 57.14C83.7087 56.6055 83.1446 56.1756 82.476 55.8643C81.8084 55.5525 81.0207 55.3945 80.1341 55.3945C79.2474 55.3945 78.4593 55.5525 77.7911 55.8643C77.1235 56.1756 76.559 56.6055 76.1131 57.141C75.6686 57.675 75.3334 58.3131 75.1191 59.0385C74.9058 59.7591 74.7975 60.5492 74.7975 61.3861C74.7975 62.2235 74.9058 63.014 75.1191 63.7337C75.3334 64.4585 75.6677 65.0971 76.1136 65.6321C76.5594 66.1676 77.1254 66.5938 77.7921 66.8976C78.4607 67.2014 79.2484 67.3561 80.1341 67.3561C81.0202 67.3561 81.807 67.2014 82.4751 66.8976C83.1428 66.5938 83.7077 66.1676 84.1546 65.6321C84.5995 65.099 84.9338 64.4595 85.149 63.7337C85.3619 63.0126 85.4702 62.2225 85.4702 61.3861C85.4702 60.5501 85.3619 59.7596 85.149 59.0385ZM103.091 65.0559C103.019 64.8435 102.812 64.9237 102.812 64.9237C102.495 65.0451 102.157 65.1576 101.796 65.2139C101.432 65.2711 101.029 65.2997 100.599 65.2997C99.5422 65.2997 98.7006 64.9851 98.1 64.3634C97.4966 63.7412 97.1576 62.7359 97.1613 61.3762C97.1646 60.1403 97.4638 59.2091 98.0001 58.4993C98.5318 57.7941 99.3439 57.4321 100.424 57.4321C101.325 57.4321 102.013 57.5367 102.734 57.7627C102.734 57.7627 102.905 57.8372 102.987 57.6117C103.179 57.0805 103.32 56.7026 103.525 56.1189C103.583 55.9524 103.44 55.8821 103.388 55.8619C103.105 55.7513 102.436 55.5698 101.931 55.4934C101.459 55.4212 100.907 55.3837 100.291 55.3837C99.3739 55.3837 98.5557 55.5407 97.8562 55.8521C97.1581 56.1629 96.5659 56.5924 96.0965 57.1264C95.6272 57.6614 95.2699 58.3005 95.0336 59.0253C94.7969 59.7465 94.6773 60.5379 94.6773 61.3772C94.6773 63.1893 95.1663 64.6536 96.1308 65.7264C97.0985 66.8029 98.5501 67.3496 100.445 67.3496C101.564 67.3496 102.712 67.1231 103.539 66.7977C103.539 66.7977 103.697 66.7218 103.628 66.538L103.091 65.0559ZM106.914 60.1722C107.019 59.4684 107.211 58.8837 107.512 58.4271C107.965 57.7355 108.656 57.3543 109.627 57.3543C110.598 57.3543 111.238 57.736 111.699 58.4275C112.004 58.8847 112.137 59.4937 112.189 60.1731L106.914 60.1722ZM114.27 58.6263C114.084 57.9259 113.626 57.2183 113.324 56.8948C112.848 56.3819 112.382 56.0227 111.919 55.8244C111.25 55.5398 110.529 55.3935 109.801 55.3945C108.878 55.3945 108.039 55.5506 107.359 55.8694C106.678 56.1892 106.105 56.6262 105.657 57.1691C105.207 57.7116 104.87 58.3572 104.655 59.0896C104.439 59.8177 104.33 60.6115 104.33 61.4498C104.33 62.3022 104.443 63.097 104.666 63.8115C104.89 64.5322 105.251 65.1647 105.737 65.6912C106.224 66.2196 106.849 66.6341 107.597 66.9229C108.341 67.2113 109.245 67.3608 110.282 67.3575C112.419 67.3505 113.543 66.8741 114.007 66.6177C114.089 66.5717 114.167 66.4925 114.07 66.2641L113.586 64.9101C113.512 64.708 113.308 64.7811 113.308 64.7811C112.777 64.979 112.027 65.332 110.271 65.3283C109.124 65.3264 108.275 64.9874 107.741 64.4581C107.195 63.9165 106.926 63.1213 106.881 61.9979L114.276 62.0036C114.276 62.0036 114.471 62.0017 114.491 61.8113C114.499 61.7326 114.745 60.2922 114.27 58.6263ZM47.6783 60.1722C47.7829 59.4684 47.9761 58.8837 48.2761 58.4271C48.73 57.7355 49.4192 57.3543 50.3912 57.3543C51.3627 57.3543 52.0027 57.736 52.464 58.4275C52.7683 58.8847 52.9015 59.4937 52.9535 60.1731L47.6783 60.1722ZM55.0343 58.6263C54.8487 57.9259 54.3897 57.2183 54.0886 56.8948C53.6127 56.3819 53.1472 56.0227 52.6839 55.8244C52.0141 55.5399 51.2938 55.3937 50.5661 55.3945C49.6429 55.3945 48.8041 55.5506 48.1238 55.8694C47.4425 56.1892 46.87 56.6262 46.4204 57.1691C45.9717 57.7116 45.6346 58.3572 45.4184 59.0896C45.2032 59.8177 45.0949 60.6115 45.0949 61.4498C45.0949 62.3022 45.2069 63.097 45.4306 63.8115C45.6547 64.5322 46.0157 65.1647 46.5015 65.6912C46.9882 66.2196 47.6136 66.6341 48.3615 66.9229C49.106 67.2113 50.0091 67.3608 51.0467 67.3575C53.1833 67.3505 54.3076 66.8741 54.7718 66.6177C54.8534 66.5717 54.9312 66.4925 54.8341 66.2641L54.3507 64.9101C54.2762 64.708 54.0718 64.7811 54.0718 64.7811C53.5419 64.979 52.7913 65.332 51.0354 65.3283C49.889 65.3264 49.039 64.9874 48.5049 64.4581C47.9592 63.9165 47.6905 63.1213 47.645 61.9979L55.0404 62.0036C55.0404 62.0036 55.2355 62.0017 55.2556 61.8113C55.2636 61.7326 55.5093 60.2922 55.0343 58.6263ZM31.6915 65.0156C31.4012 64.7839 31.3609 64.7272 31.2648 64.5767C31.118 64.3502 31.043 64.0277 31.043 63.6146C31.043 62.9652 31.2587 62.4973 31.7032 62.1831C31.6985 62.1841 32.3408 61.6289 33.8482 61.6486C34.5207 61.6606 35.1916 61.7178 35.8564 61.8198V65.1815H35.8573C35.8573 65.1815 34.9172 65.3836 33.859 65.4474C32.3549 65.5379 31.6868 65.0142 31.6915 65.0156ZM34.6345 59.8177C34.3345 59.7957 33.9458 59.7849 33.4797 59.7849C32.8463 59.7849 32.2335 59.8637 31.6582 60.0184C31.0805 60.1741 30.561 60.4151 30.1142 60.7344C29.6677 61.0534 29.3004 61.4708 29.041 61.9543C28.7789 62.4424 28.6452 63.0159 28.6452 63.6587C28.6452 64.3146 28.7592 64.8829 28.9842 65.347C29.2044 65.8073 29.5359 66.2053 29.9487 66.5051C30.3599 66.8043 30.8672 67.0237 31.4556 67.1578C32.0365 67.2905 32.6948 67.3575 33.4141 67.3575C34.1736 67.3575 34.929 67.2938 35.6609 67.1705C36.2843 67.063 36.9054 66.9424 37.5237 66.8085C37.7703 66.7518 38.0422 66.6772 38.0422 66.6772C38.2251 66.6308 38.211 66.4353 38.211 66.4353L38.2068 59.6714C38.2068 58.188 37.8111 57.0889 37.0314 56.4063C36.2554 55.7269 35.1128 55.3837 33.6344 55.3837C33.0793 55.3837 32.1875 55.4587 31.6521 55.5661C31.6521 55.5661 30.0373 55.8793 29.3725 56.4002C29.3725 56.4002 29.2262 56.4902 29.3059 56.6941L29.8296 58.1007C29.8948 58.2831 30.0725 58.2208 30.0725 58.2208C30.0725 58.2208 30.1283 58.1987 30.1939 58.1598C31.6164 57.3862 33.4164 57.4092 33.4164 57.4092C34.2154 57.4092 34.831 57.5709 35.2445 57.8874C35.6482 58.1973 35.8531 58.6638 35.8531 59.6499V59.9626C35.2187 59.8707 34.6345 59.8177 34.6345 59.8177ZM94.2905 56.0073C94.3011 55.9825 94.3067 55.9559 94.3069 55.929C94.307 55.9021 94.3018 55.8754 94.2914 55.8505C94.281 55.8257 94.2658 55.8032 94.2465 55.7844C94.2273 55.7655 94.2044 55.7508 94.1794 55.7409C94.0532 55.6931 93.4245 55.5604 92.9397 55.5304C92.0099 55.4723 91.4947 55.6289 91.0323 55.8371C90.5738 56.0438 90.066 56.3781 89.7828 56.7593L89.7819 55.8572C89.7819 55.7334 89.6942 55.6336 89.5695 55.6336H87.6734C87.5506 55.6336 87.4615 55.7334 87.4615 55.8572V66.8905C87.4616 66.9501 87.4853 67.0071 87.5274 67.0492C87.5695 67.0913 87.6265 67.115 87.6861 67.1151H89.6295C89.689 67.115 89.746 67.0913 89.788 67.0492C89.83 67.0071 89.8536 66.95 89.8536 66.8905V61.379C89.8536 60.6387 89.9352 59.9012 90.0979 59.4375C90.2583 58.9785 90.4763 58.6127 90.7463 58.3497C91.0022 58.0958 91.3155 57.9074 91.6597 57.8002C91.9823 57.7076 92.3162 57.6606 92.6518 57.6605C93.0386 57.6605 93.4643 57.7599 93.4643 57.7599C93.6069 57.7758 93.6861 57.6886 93.7344 57.5601C93.8615 57.2221 94.2216 56.2089 94.2905 56.0073Z" fill="#FFFFFE"/>
<path fill-rule="evenodd" clip-rule="evenodd" d="M76.0503 50.8943C75.8104 50.8218 75.5663 50.7638 75.3193 50.7208C74.9872 50.6654 74.6508 50.6393 74.3141 50.643C72.9764 50.643 71.9219 51.0209 71.1816 51.7673C70.4464 52.5081 69.9461 53.6367 69.6953 55.1216L69.6048 55.6228H67.9258C67.9258 55.6228 67.7209 55.6143 67.6778 55.838L67.4021 57.3759C67.3829 57.5231 67.4462 57.615 67.6431 57.6141H69.2775L67.6192 66.8708C67.4893 67.6163 67.3407 68.2296 67.1761 68.6943C67.0139 69.1528 66.8554 69.4965 66.6603 69.7459C66.4714 69.9874 66.2923 70.1651 65.9833 70.2687C65.7282 70.3545 65.4347 70.3939 65.1131 70.3939C64.934 70.3939 64.6958 70.3639 64.52 70.3287C64.3441 70.294 64.2527 70.2546 64.121 70.1993C64.121 70.1993 63.9292 70.1262 63.8537 70.3184C63.7923 70.4755 63.3567 71.6734 63.3051 71.8216C63.2526 71.9679 63.3262 72.0832 63.4191 72.1165C63.6366 72.1943 63.7984 72.244 64.0947 72.3139C64.5064 72.4109 64.8533 72.417 65.1783 72.417C65.859 72.417 66.4794 72.3214 66.9937 72.1357C67.5113 71.9486 67.9619 71.6228 68.3604 71.1816C68.7913 70.7057 69.0623 70.2073 69.3216 69.5274C69.5781 68.8537 69.7966 68.0172 69.9715 67.0424L71.6378 57.6141H74.074C74.074 57.6141 74.2794 57.6216 74.3221 57.3988L74.5977 55.861C74.617 55.7137 74.5541 55.6218 74.3563 55.6228H71.9918C72.0035 55.5693 72.1109 54.7376 72.3824 53.9546C72.4982 53.6203 72.7162 53.3507 72.9009 53.1655C73.0734 52.9891 73.2859 52.8569 73.5203 52.7801C73.7773 52.7006 74.0451 52.662 74.3141 52.6657C74.5368 52.6657 74.7553 52.6924 74.9217 52.7271C75.151 52.7758 75.2401 52.8016 75.3001 52.8194C75.5411 52.8931 75.5735 52.8218 75.6208 52.705L76.1863 51.1522C76.2444 50.9852 76.1028 50.9149 76.0503 50.8943ZM43.0075 66.8905C43.0075 67.0143 42.9194 67.1151 42.7956 67.1151H40.8343C40.7101 67.1151 40.6219 67.0143 40.6219 66.8905V51.1048C40.6219 50.9815 40.7101 50.8816 40.8343 50.8816H42.7956C42.9194 50.8816 43.0075 50.9815 43.0075 51.1048V66.8905Z" fill="#FFFFFE"/>
</g>
<defs>
<clipPath id="clip0_60_20651">
<rect width="128" height="89.5531" fill="white" transform="translate(0 19.2234)"/>
</clipPath>
</defs>
</svg>
