<svg width="128" height="128" viewBox="0 0 128 128" fill="none" xmlns="http://www.w3.org/2000/svg">
<g clip-path="url(#clip0_0_370)">
<path d="M125.325 32.9913C123.853 27.448 119.516 23.0829 114.009 21.6015C104.027 18.9091 64 18.9091 64 18.9091C64 18.9091 23.9733 18.9091 13.9912 21.6015C8.48407 23.0829 4.14659 27.448 2.67471 32.9913C0 43.038 0 64 0 64C0 64 0 84.9617 2.67471 95.0094C4.14659 100.552 8.48407 104.917 13.9912 106.399C23.9733 109.091 64 109.091 64 109.091C64 109.091 104.027 109.091 114.009 106.399C119.516 104.917 123.853 100.552 125.325 95.0094C128 84.9617 128 64 128 64C128 64 128 43.038 125.325 32.9913Z" fill="#ED1D24"/>
<path d="M50.9092 83.0318L84.3637 64.0009L50.9092 44.9682V83.0318Z" fill="white"/>
</g>
<defs>
<clipPath id="clip0_0_370">
<rect width="128" height="90.1818" fill="white" transform="translate(0 18.9091)"/>
</clipPath>
</defs>
</svg>
