<svg width="308" height="93" viewBox="26 73 308 93" fill="none" xmlns="http://www.w3.org/2000/svg">
<path d="M50.5645 77C61.9219 77 71.1289 86.207 71.1289 97.5645V113.723C71.1288 116.156 69.1562 118.129 66.7227 118.129H51.9355V98.9355H49.1934V118.129H34.4062C31.9728 118.129 30.0001 116.156 30 113.723V97.5645C30 86.207 39.207 77 50.5645 77Z" fill="#2D2D2D"/>
<path d="M94.4355 162C83.0781 162 73.8711 152.793 73.8711 141.436L73.8711 125.277C73.8712 122.844 75.8438 120.871 78.2773 120.871L93.0645 120.871L93.0645 140.064L95.8066 140.064L95.8066 120.871L110.594 120.871C113.027 120.871 115 122.844 115 125.277L115 141.436C115 152.793 105.793 162 94.4355 162Z" fill="#2D2D2D"/>
<path d="M73.8711 97.5659C73.8711 86.2085 83.0781 77.0015 94.4355 77.0015C105.332 77.0015 114.247 85.4761 114.953 96.1938L95.8066 96.1938L95.8066 98.9351L114.953 98.9351C114.248 109.654 105.333 118.13 94.4355 118.13C83.0781 118.13 73.8711 108.923 73.8711 97.5659Z" fill="#2D2D2D"/>
<path d="M30 141.437C30 136.251 31.9192 131.514 35.0859 127.896L45.7773 138.587L47.7168 136.648L37.0254 125.958C40.6429 122.791 45.3797 120.871 50.5654 120.871C55.5341 120.871 60.0909 122.634 63.6455 125.567L52.5625 136.65L54.501 138.589L65.6396 127.451C69.0451 131.121 71.1288 136.034 71.1289 141.435C71.1289 146.62 69.2093 151.358 66.042 154.976L54.2031 143.136L52.2637 145.074L64.1025 156.914C60.4854 160.08 55.7492 162 50.5645 162C45.1634 162 40.2486 159.917 36.5791 156.512L48.0146 145.077L46.0762 143.138L34.6963 154.518C31.7624 150.963 30 146.405 30 141.437Z" fill="#2D2D2D"/>
<g transform="translate(16, 0)">
<path d="M127.774 139.187V119.593C127.774 110.125 135.45 102.449 144.919 102.449C154.387 102.449 162.063 110.125 162.063 119.593V139.187" stroke="#2D2D2D" stroke-width="7.60233"/>
<path d="M310.309 99.9999L310.309 119.594C310.309 129.063 302.633 136.739 293.164 136.739C283.696 136.739 276.02 129.063 276.02 119.594L276.02 99.9999" stroke="#2D2D2D" stroke-width="7.60233"/>
<mask id="path-7-inside-1_444_214" fill="white">
<path d="M194.882 100.013C205.704 100.013 214.476 108.785 214.476 119.607C214.476 120.368 214.431 121.118 214.346 121.857H206.663C206.801 121.128 206.875 120.376 206.875 119.607C206.874 112.984 201.505 107.615 194.882 107.615C188.26 107.616 182.891 112.984 182.891 119.607C182.891 126.229 188.26 131.599 194.882 131.599C199.298 131.599 203.154 129.211 205.235 125.657H213.523C210.974 133.518 203.592 139.2 194.882 139.2C184.061 139.2 175.289 130.428 175.289 119.607C175.289 108.786 184.061 100.013 194.882 100.013Z"/>
</mask>
<path d="M194.882 100.013C205.704 100.013 214.476 108.785 214.476 119.607C214.476 120.368 214.431 121.118 214.346 121.857H206.663C206.801 121.128 206.875 120.376 206.875 119.607C206.874 112.984 201.505 107.615 194.882 107.615C188.26 107.616 182.891 112.984 182.891 119.607C182.891 126.229 188.26 131.599 194.882 131.599C199.298 131.599 203.154 129.211 205.235 125.657H213.523C210.974 133.518 203.592 139.2 194.882 139.2C184.061 139.2 175.289 130.428 175.289 119.607C175.289 108.786 184.061 100.013 194.882 100.013Z" fill="#2D2D2D"/>
<path d="M194.882 100.013V96.3391H194.882L194.882 100.013ZM214.476 119.607H218.15V119.607L214.476 119.607ZM214.346 121.857V125.531H217.624L217.996 122.274L214.346 121.857ZM206.663 121.857L203.053 121.171L202.226 125.531H206.663V121.857ZM206.875 119.607H210.548V119.607L206.875 119.607ZM194.882 107.615V103.942H194.882L194.882 107.615ZM182.891 119.607L179.217 119.607V119.607H182.891ZM194.882 131.599L194.882 135.273H194.882V131.599ZM205.235 125.657V121.984H203.129L202.065 123.801L205.235 125.657ZM213.523 125.657L217.018 126.791L218.577 121.984H213.523V125.657ZM194.882 139.2L194.882 142.874H194.882V139.2ZM175.289 119.607L171.615 119.607V119.607H175.289ZM194.882 100.013V103.687C203.675 103.687 210.802 110.814 210.802 119.607L214.476 119.607L218.15 119.607C218.15 106.756 207.733 96.3391 194.882 96.3391V100.013ZM214.476 119.607H210.802C210.802 120.221 210.766 120.832 210.696 121.439L214.346 121.857L217.996 122.274C218.096 121.404 218.15 120.514 218.15 119.607H214.476ZM214.346 121.857V118.183H206.663V121.857V125.531H214.346V121.857ZM206.663 121.857L210.272 122.542C210.452 121.592 210.548 120.611 210.548 119.607H206.875H203.201C203.201 120.141 203.15 120.664 203.053 121.171L206.663 121.857ZM206.875 119.607L210.548 119.607C210.548 110.955 203.534 103.942 194.882 103.942V107.615V111.289C199.476 111.289 203.201 115.013 203.201 119.607L206.875 119.607ZM194.882 107.615L194.882 103.942C186.231 103.942 179.218 110.955 179.217 119.607L182.891 119.607L186.565 119.607C186.565 115.013 190.289 111.289 194.883 111.289L194.882 107.615ZM182.891 119.607H179.217C179.217 128.258 186.23 135.273 194.882 135.273L194.882 131.599L194.883 127.925C190.289 127.925 186.565 124.201 186.565 119.607H182.891ZM194.882 131.599V135.273C200.657 135.273 205.692 132.145 208.405 127.514L205.235 125.657L202.065 123.801C200.615 126.277 197.939 127.925 194.882 127.925V131.599ZM205.235 125.657V129.331H213.523V125.657V121.984H205.235V125.657ZM213.523 125.657L210.028 124.524C207.956 130.914 201.953 135.527 194.882 135.527V139.2V142.874C205.231 142.874 213.991 136.121 217.018 126.791L213.523 125.657ZM194.882 139.2L194.882 135.527C186.09 135.526 178.963 128.399 178.963 119.607H175.289H171.615C171.615 132.457 182.032 142.874 194.882 142.874L194.882 139.2ZM175.289 119.607L178.963 119.607C178.963 110.815 186.09 103.687 194.882 103.687L194.882 100.013L194.882 96.3391C182.032 96.3393 171.615 106.757 171.615 119.607L175.289 119.607Z" fill="#2D2D2D" mask="url(#path-7-inside-1_444_214)"/>
<path d="M190.493 116.155H212.35L214.251 121.856H190.493V116.155Z" fill="#2D2D2D"/>
<mask id="path-10-inside-2_444_214" fill="white">
<path d="M262.941 100.006C262.938 110.825 254.167 119.595 243.347 119.595C232.528 119.595 223.756 110.825 223.754 100.006H231.356C231.359 106.626 236.726 111.993 243.347 111.993C249.968 111.993 255.337 106.627 255.339 100.006H262.941Z"/>
</mask>
<path d="M262.941 100.006C262.938 110.825 254.167 119.595 243.347 119.595C232.528 119.595 223.756 110.825 223.754 100.006H231.356C231.359 106.626 236.726 111.993 243.347 111.993C249.968 111.993 255.337 106.627 255.339 100.006H262.941Z" fill="#2D2D2D"/>
<path d="M262.941 100.006L266.615 100.007L266.616 96.3322H262.941V100.006ZM243.347 119.595L243.347 123.269H243.347L243.347 119.595ZM223.754 100.006V96.3322H220.079L220.08 100.007L223.754 100.006ZM231.356 100.006L235.03 100.005L235.028 96.3322H231.356V100.006ZM243.347 111.993L243.347 115.667H243.347L243.347 111.993ZM255.339 100.006V96.3322H251.667L251.666 100.005L255.339 100.006ZM262.941 100.006L259.267 100.005C259.265 108.796 252.138 115.921 243.347 115.921L243.347 119.595L243.347 123.269C256.196 123.269 266.612 112.855 266.615 100.007L262.941 100.006ZM243.347 119.595L243.347 115.921C234.556 115.921 227.43 108.796 227.427 100.005L223.754 100.006L220.08 100.007C220.083 112.855 230.499 123.269 243.347 123.269L243.347 119.595ZM223.754 100.006V103.68H231.356V100.006V96.3322H223.754V100.006ZM231.356 100.006L227.682 100.008C227.686 108.656 234.697 115.667 243.347 115.667L243.347 111.993L243.347 108.32C238.755 108.319 235.032 104.597 235.03 100.005L231.356 100.006ZM243.347 111.993L243.347 115.667C251.997 115.667 259.01 108.656 259.013 100.008L255.339 100.006L251.666 100.005C251.664 104.597 247.94 108.32 243.347 108.32L243.347 111.993ZM255.339 100.006V103.68H262.941V100.006V96.3322H255.339V100.006Z" fill="#2D2D2D" mask="url(#path-10-inside-2_444_214)"/>
<mask id="path-12-inside-3_444_214" fill="white">
<path d="M223.757 139.182C223.76 128.363 232.531 119.593 243.35 119.593C254.17 119.593 262.941 128.363 262.944 139.182L255.342 139.182C255.339 132.562 249.971 127.195 243.35 127.195C236.729 127.195 231.361 132.562 231.358 139.182L223.757 139.182Z"/>
</mask>
<path d="M223.757 139.182C223.76 128.363 232.531 119.593 243.35 119.593C254.17 119.593 262.941 128.363 262.944 139.182L255.342 139.182C255.339 132.562 249.971 127.195 243.35 127.195C236.729 127.195 231.361 132.562 231.358 139.182L223.757 139.182Z" fill="#2D2D2D"/>
<path d="M223.757 139.182L220.083 139.181L220.082 142.856L223.757 142.856L223.757 139.182ZM243.35 119.593L243.35 115.919L243.35 115.919L243.35 119.593ZM262.944 139.182L262.944 142.856L266.619 142.856L266.618 139.181L262.944 139.182ZM255.342 139.182L251.668 139.184L251.669 142.856L255.342 142.856L255.342 139.182ZM243.35 127.195L243.351 123.521L243.35 123.521L243.35 127.195ZM231.358 139.182L231.358 142.856L235.031 142.856L235.032 139.184L231.358 139.182ZM223.757 139.182L227.431 139.183C227.433 130.393 234.56 123.267 243.35 123.267L243.35 119.593L243.35 115.919C230.502 115.919 220.086 126.334 220.083 139.181L223.757 139.182ZM243.35 119.593L243.35 123.267C252.141 123.267 259.268 130.393 259.27 139.183L262.944 139.182L266.618 139.181C266.615 126.334 256.199 115.92 243.35 115.919L243.35 119.593ZM262.944 139.182L262.944 135.508L255.342 135.508L255.342 139.182L255.342 142.856L262.944 142.856L262.944 139.182ZM255.342 139.182L259.016 139.181C259.012 130.532 252 123.521 243.351 123.521L243.35 127.195L243.35 130.869C247.942 130.869 251.666 134.591 251.668 139.184L255.342 139.182ZM243.35 127.195L243.35 123.521C234.701 123.521 227.688 130.532 227.684 139.181L231.358 139.182L235.032 139.184C235.034 134.592 238.758 130.869 243.35 130.869L243.35 127.195ZM231.358 139.182L231.358 135.508L223.757 135.508L223.757 139.182L223.757 142.856L231.358 142.856L231.358 139.182Z" fill="#2D2D2D" mask="url(#path-12-inside-3_444_214)"/>
</g>
</svg>
