<svg width="512" height="512" viewBox="0 0 512 512" fill="none" xmlns="http://www.w3.org/2000/svg">
<path fill-rule="evenodd" clip-rule="evenodd" d="M161.308 72.5333C210.336 72.5335 250.081 112.279 250.081 161.308V231.059C250.081 241.565 241.565 250.082 231.059 250.082H91.5569C81.0508 250.082 72.5335 241.565 72.5334 231.059V161.308C72.5334 112.279 112.279 72.5333 161.308 72.5333ZM155.39 167.225V250.081H167.226V167.225H155.39Z" fill="#F8672F"/>
<path fill-rule="evenodd" clip-rule="evenodd" d="M350.691 439.466C301.663 439.466 261.918 399.72 261.918 350.692L261.918 280.941C261.918 270.435 270.434 261.917 280.94 261.917L420.442 261.917C430.948 261.917 439.466 270.435 439.466 280.941V350.692C439.466 399.72 399.72 439.466 350.691 439.466ZM356.61 344.774L356.61 261.918L344.774 261.918L344.774 344.774H356.61Z" fill="#EDC337"/>
<path d="M261.919 161.313C261.919 112.284 301.665 72.5391 350.693 72.5391C397.73 72.5393 436.221 109.122 439.27 155.388L356.61 155.388V167.225L439.271 167.225C436.229 213.497 397.735 250.087 350.693 250.087C301.665 250.087 261.919 210.341 261.919 161.313Z" fill="#346E58"/>
<path d="M72.5334 350.697C72.5334 328.311 80.8194 307.862 94.4905 292.245L140.643 338.396L149.012 330.027L102.861 283.876C118.477 270.205 138.926 261.918 161.312 261.918C182.76 261.918 202.432 269.526 217.777 282.19L169.931 330.035L178.301 338.405L226.389 290.317C241.091 306.158 250.081 327.374 250.081 350.69C250.081 373.075 241.794 393.525 228.122 409.141L177.014 358.031L168.644 366.4L219.753 417.51C204.137 431.18 183.689 439.466 161.305 439.466C137.99 439.466 116.774 430.478 100.934 415.778L150.3 366.411L141.931 358.042L92.8069 407.166C80.1413 391.821 72.5335 372.147 72.5334 350.697Z" fill="#F3B0FF"/>
</svg>
